<?xml version="1.0" encoding="UTF-8" standalone="no"?>
<svg width="237px" height="25px" viewBox="0 0 237 25" version="1.1" xmlns="http://www.w3.org/2000/svg" xmlns:xlink="http://www.w3.org/1999/xlink">
    <defs></defs>
    <g id="Page-1" stroke="none" stroke-width="1" fill="none" fill-rule="evenodd">
        <g id="dt-Creative-RF-srp" transform="translate(-16.000000, -2288.000000)">
            <g id="Prestige-carousel" transform="translate(0.000000, 2277.000000)">
                <g id="Prestige-logo" transform="translate(16.000000, 11.000000)">
                    <path d="M57.6749623,0.285119048 L59.3125251,0.285119048 L59.3125251,2.64642857 L57.6749623,2.64642857 L57.6749623,0.285119048 Z M57.6749623,5.7047619 L59.3125251,5.7047619 L59.3125251,19.6559524 L57.6749623,19.6559524 L57.6749623,5.7047619 Z" id="Fill-1" fill="#FFFFFF"></path>
                    <path d="M63.0801106,19.6559524 L63.0801106,5.7047619 L64.7176734,5.7047619 L64.7176734,7.82440476 C66.1640879,6.32202381 67.2288015,5.43630952 69.439809,5.43630952 C71.0231834,5.43630952 72.469598,6.42916667 72.8792864,7.98511905 C74.1619447,6.50952381 75.5267789,5.43630952 77.5734347,5.43630952 C80.0577663,5.43630952 81.3130327,6.77797619 81.3130327,9.21964286 L81.3130327,19.6559524 L79.6754698,19.6559524 L79.6754698,9.05892857 C79.6754698,7.50238095 78.8019045,6.72440476 77.2191256,6.72440476 C75.9632638,6.72440476 73.8892161,8.03928571 73.0156508,9.38035714 L73.0156508,19.6559524 L71.3780879,19.6559524 L71.3780879,9.05892857 C71.3780879,7.50238095 70.5045226,6.72440476 68.9211482,6.72440476 C67.6658819,6.72440476 65.5906432,8.03928571 64.7176734,9.38035714 L64.7176734,19.6559524 L63.0801106,19.6559524" id="Fill-2" fill="#FFFFFF"></path>
                    <path d="M92.8879221,19.6559524 L92.6699774,17.9660714 C90.9776307,19.2809524 89.6949724,19.925 87.5107613,19.925 C85.2997538,19.925 83.607407,18.5833333 83.607407,16.2761905 C83.607407,12.4660714 86.7741558,11.7684524 92.6967739,10.4803571 L92.6967739,9.51488095 C92.6967739,7.66369048 91.8779925,6.72440476 89.4490402,6.72440476 C87.7566935,6.72440476 86.3644673,7.63690476 85.3277412,9.24642857 L84.2356357,8.60238095 C85.4635101,6.34880952 87.2106407,5.43630952 89.5038241,5.43630952 C92.7247613,5.43630952 94.2527563,6.72440476 94.2527563,9.80952381 L94.2527563,17.1071429 C94.2527563,17.8047619 94.3075402,18.7172619 94.4712965,19.6559524 L92.8879221,19.6559524 L92.8879221,19.6559524 Z M92.6151935,11.7684524 C86.1185352,13.1630952 85.2449698,14.4779762 85.2449698,16.2488095 C85.2449698,17.7779762 86.3096834,18.6369048 87.7840854,18.6369048 C89.3120804,18.6369048 91.1955754,17.7511905 92.6151935,16.3297619 L92.6151935,11.7684524 L92.6151935,11.7684524 Z" id="Fill-3" fill="#FFFFFF"></path>
                    <path d="M108.993204,6.6172619 C108.256598,6.6172619 107.300857,6.69761905 106.727412,7.26130952 C107.355641,8.01190476 107.738533,8.84404762 107.738533,10.1857143 C107.738533,13.6196429 105.254201,15.0684524 102.251804,15.0684524 C101.350847,15.0684524 100.66843,14.8803571 99.9586206,14.6392857 C99.0582588,14.9613095 98.6485704,15.4708333 98.6485704,15.9809524 C98.6485704,16.7857143 99.1946231,17.1880952 103.043193,17.1880952 C107.300857,17.1880952 109.075379,18.5297619 109.075379,20.810119 C109.075379,22.8494048 107.492601,24.5928571 102.606709,24.5928571 C97.7202211,24.5928571 96.4101709,22.9559524 96.4101709,21.2928571 C96.4101709,20.0857143 96.9014397,19.0660714 98.8945025,18.3422619 L98.8945025,18.2880952 C97.8571809,18.0732143 97.0110075,17.6446429 97.0110075,16.4636905 C97.0110075,15.2833333 98.1025176,14.3172619 99.1398392,14.102381 C97.8571809,13.2440476 97.0931834,11.9029762 97.0931834,10.4535714 C97.0931834,7.3952381 99.2762035,5.43630952 102.715681,5.43630952 C104.080515,5.43630952 105.117837,5.8125 106.018198,6.40238095 C106.83698,5.59761905 107.874302,5.16845238 108.993204,5.16845238 L108.993204,6.6172619 L108.993204,6.6172619 Z M98.0477337,20.997619 C98.0477337,22.3660714 99.4131633,23.3053571 102.360181,23.3053571 C105.908631,23.3053571 107.437817,22.3660714 107.437817,20.9178571 C107.437817,19.7636905 106.509467,18.6369048 102.251804,18.6369048 C99.0308668,18.6369048 98.0477337,19.7904762 98.0477337,20.997619 L98.0477337,20.997619 Z M102.414965,13.7803571 C104.708148,13.7803571 106.100374,12.7077381 106.100374,10.2928571 C106.100374,7.85119048 104.708148,6.72440476 102.414965,6.72440476 C100.122972,6.72440476 98.7307462,8.11964286 98.7307462,10.2928571 C98.7307462,12.7077381 100.423093,13.7803571 102.414965,13.7803571 L102.414965,13.7803571 Z" id="Fill-4" fill="#FFFFFF"></path>
                    <path d="M111.451334,12.7345238 C111.451334,15.9 112.788776,18.6369048 116.009714,18.6369048 C117.838425,18.6369048 118.739382,18.0196429 120.158405,15.8196429 L121.495847,16.5172619 C119.967852,18.9857143 118.575626,19.925 115.873349,19.925 C112.161143,19.925 109.813771,17.5904762 109.813771,12.6809524 C109.813771,8.36071429 112.052171,5.43630952 115.655405,5.43630952 C119.503379,5.43630952 121.33209,8.41488095 121.33209,12.7345238 L111.451334,12.7345238 L111.451334,12.7345238 Z M119.694528,11.4464286 C119.367015,8.57559524 118.084357,6.75119048 115.600621,6.72440476 C112.706601,6.69761905 111.478726,9.5952381 111.451334,11.4464286 L119.694528,11.4464286 L119.694528,11.4464286 Z" id="Fill-5" fill="#FFFFFF"></path>
                    <path d="M123.680653,16.2761905 C125.018095,18.1541667 126.219173,18.6369048 128.075276,18.6369048 C129.876595,18.6369048 131.24143,17.4833333 131.24143,15.9809524 C131.24143,11.9291667 122.889264,14.210119 122.889264,9.24642857 C122.889264,6.6172619 124.990704,5.43630952 127.392859,5.43630952 C129.767623,5.43630952 131.268822,6.34880952 132.278751,7.95892857 L131.023485,8.8172619 C130.067744,7.52916667 129.030422,6.72440476 127.338671,6.72440476 C125.755296,6.72440476 124.526827,7.47559524 124.526827,9.16607143 C124.526827,12.5732143 132.878992,10.5613095 132.878992,15.9809524 C132.878992,18.4755952 130.531621,19.925 127.965709,19.925 C125.782688,19.925 123.817613,19.0660714 122.480171,17.1071429 L123.680653,16.2761905" id="Fill-6" fill="#FFFFFF"></path>
                    <path d="M139,2.57440476 L139,22.6125" id="Stroke-7" stroke="#4CB7FF"></path>
                    <path d="M12.5431357,7.92738095 C11.7862839,7.92738095 10.9514246,7.92738095 10.455392,8.24107143 C10.8728216,8.81428571 11.1866382,9.59702381 11.1866382,10.6404762 C11.1866382,13.1970238 9.46392211,15.022619 6.07148744,15.022619 C4.66258794,15.022619 3.54011307,15.075 3.54011307,15.8571429 C3.54011307,18.0488095 12.4651281,15.075 12.4651281,20.5005952 C12.4651281,22.4309524 10.507794,24.5178571 6.17629146,24.5178571 C2.52244221,24.5178571 0.122072864,23.4220238 0.122072864,21.2833333 C0.122072864,19.5880952 1.40056281,18.7791667 2.57484422,18.7791667 L2.57484422,18.727381 C1.94840201,18.3357143 0.565703518,17.9964286 0.565703518,16.5357143 C0.565703518,15.2315476 2.07881156,14.2404762 2.67964824,14.0577381 C1.55717337,13.1446429 0.66991206,12.1011905 0.66991206,10.4577381 C0.66991206,8.08452381 2.49624121,5.73630952 6.0196809,5.73630952 C7.16776131,5.73630952 8.52485427,6.20654762 9.35971357,6.93630952 C9.98615578,6.10178571 11.0038266,5.68452381 12.5431357,5.73630952 L12.5431357,7.92738095 L12.5431357,7.92738095 Z M3.09707789,20.8660714 C3.09707789,21.9089286 3.98374372,22.3785714 6.69733417,22.3785714 C8.78507789,22.3785714 9.49012312,21.3357143 9.49012312,20.8660714 C9.49012312,20.239881 8.52485427,19.3011905 5.39323869,19.3011905 C3.61871608,19.3011905 3.09707789,20.2922619 3.09707789,20.8660714 L3.09707789,20.8660714 Z M5.9934799,8.13630952 C4.61018593,8.13630952 3.64491709,9.12797619 3.64491709,10.3797619 C3.64491709,11.6321429 4.61018593,12.6232143 5.9934799,12.6232143 C7.21956784,12.6232143 8.21103769,11.6321429 8.21103769,10.3797619 C8.21103769,9.12797619 7.21956784,8.13630952 5.9934799,8.13630952 L5.9934799,8.13630952 Z" id="Fill-8" fill="#FFFFFF"></path>
                    <path d="M16.1231457,13.3011905 C16.1755477,16.1184524 17.4278367,17.2142857 18.9415402,17.2142857 C20.4552437,17.2142857 21.1596935,16.5357143 21.9683518,15.5970238 L24.3175101,17.0577381 C23.0646256,18.9875 21.2382965,19.822619 18.6283191,19.822619 C15.1054749,19.822619 12.8873216,17.0839286 12.8873216,12.7797619 C12.8873216,8.47559524 15.1054749,5.73630952 18.7855251,5.73630952 C22.3339749,5.71071429 24.3175101,8.71071429 24.3175101,11.9708333 L24.3175101,13.3011905 L16.1231457,13.3011905 L16.1231457,13.3011905 Z M21.3419095,11.110119 C21.2906985,9.23214286 20.2980377,8.13630952 18.7331231,8.13630952 C17.1670176,8.13630952 16.1755477,9.23214286 16.1231457,11.110119 L21.3419095,11.110119 L21.3419095,11.110119 Z" id="Fill-9" fill="#FFFFFF"></path>
                    <path d="M44.1427387,21.7529762 C44.6387714,21.8577381 45.03,21.8577381 45.5004271,21.8577381 C46.6217111,21.8577381 47.2481533,21.5440476 47.6393819,20.7880952 C47.9531985,20.1357143 48.1616156,19.7446429 48.1616156,19.1964286 C48.1616156,18.7011905 47.9007965,18.127381 47.7441859,17.5791667 L44.1165377,5.99761905 L47.3791583,5.99761905 L49.6229171,14.3446429 L49.6753191,14.3446429 L51.9976809,5.99761905 L55.233505,5.99761905 L50.953809,19.5880952 C49.5181131,23.4744048 48.3706281,24.5178571 45.7088442,24.5178571 C44.925196,24.5178571 44.5339673,24.4654762 44.1427387,24.4130952 L44.1427387,21.7529762" id="Fill-10" fill="#FFFFFF"></path>
                    <path d="M26.9798894,6.03452381 L26.9798894,1.86011905 L30.5390578,1.86011905 L30.5390578,6.03452381 L33.4670201,6.03452381 L33.4670201,8.64285714 L30.5390578,8.64285714 L30.5390578,16.3119048 C30.5390578,17.0428571 30.941005,17.2511905 31.8306482,17.2511905 C32.3761055,17.2511905 32.9501457,17.0952381 33.4670201,16.9904762 L33.4670201,19.6511905 C32.4904372,19.7553571 31.6299724,19.8595238 30.6539849,19.8595238 C28.0130427,19.8595238 26.9798894,18.660119 26.9798894,16.7291667 L26.9798894,8.64285714 L24.9129874,8.64285714 L24.9129874,6.03452381 L26.9798894,6.03452381" id="Fill-11" fill="#FFFFFF"></path>
                    <path d="M36.2889874,6.03452381 L36.2889874,1.86011905 L39.8481558,1.86011905 L39.8481558,6.03452381 L42.7761181,6.03452381 L42.7761181,8.64285714 L39.8481558,8.64285714 L39.8481558,16.3119048 C39.8481558,17.0428571 40.250103,17.2511905 41.1403417,17.2511905 C41.6852035,17.2511905 42.2592437,17.0952381 42.7761181,16.9904762 L42.7761181,19.6511905 C41.8001307,19.7553571 40.9390704,19.8595238 39.9630829,19.8595238 C37.3221407,19.8595238 36.2889874,18.660119 36.2889874,16.7291667 L36.2889874,8.64285714 L34.2226809,8.64285714 L34.2226809,6.03452381 L36.2889874,6.03452381" id="Fill-12" fill="#FFFFFF"></path>
                    <path d="M236.408691,2.76666667 C236.408691,4.075 235.342191,5.14702381 234.028568,5.14702381 C232.707204,5.14702381 231.644276,4.075 231.644276,2.76666667 C231.644276,1.45297619 232.707204,0.380357143 234.028568,0.380357143 C235.342191,0.380357143 236.408691,1.45297619 236.408691,2.76666667 L236.408691,2.76666667 Z M236.025204,2.76666667 C236.025799,1.61488095 235.171884,0.701190476 234.028568,0.701190476 C232.882274,0.701190476 232.025977,1.61488095 232.025977,2.76666667 C232.025977,3.91190476 232.882274,4.82559524 234.028568,4.82559524 C235.171884,4.82559524 236.025799,3.91190476 236.025204,2.76666667 L236.025204,2.76666667 Z M233.525389,4.18452381 L233.140711,4.18452381 L233.140711,1.35 L234.22448,1.35 C234.86045,1.35 235.143302,1.62619048 235.143302,2.13511905 C235.143302,2.63452381 234.814598,2.85357143 234.491254,2.92261905 L235.27907,4.18452381 L234.84199,4.18452381 L234.070251,2.92261905 L233.525389,2.92261905 L233.525389,4.18452381 L233.525389,4.18452381 Z M233.96902,2.60297619 C234.341789,2.60297619 234.759219,2.62083333 234.759219,2.12797619 C234.759219,1.72678571 234.437065,1.67142857 234.141709,1.67142857 L233.525389,1.67142857 L233.525389,2.60297619 L233.96902,2.60297619 L233.96902,2.60297619 Z" id="Fill-13" fill="#4CB7FF"></path>
                    <path d="M148.700231,5.74047619 L150.337794,5.74047619 L150.337794,7.88630952 L150.392578,7.88630952 C151.51148,6.27678571 152.848922,5.47142857 154.677633,5.47142857 C158.361852,5.47142857 160.382307,8.95952381 160.382307,12.7964286 C160.382307,17.652381 158.089123,19.960119 154.786606,19.960119 C152.876314,19.960119 151.73002,19.3160714 150.337794,17.8672619 L150.337794,24.6285714 L148.700231,24.6285714 L148.700231,5.74047619 L148.700231,5.74047619 Z M150.337794,16.177381 C150.883847,17.1160714 152.73995,18.6720238 154.350121,18.6720238 C157.297734,18.6720238 158.744744,16.364881 158.744744,12.5011905 C158.744744,9.60357143 157.434693,6.75952381 154.595457,6.75952381 C152.794734,6.75952381 151.73002,7.85952381 150.337794,9.30892857 L150.337794,16.177381 L150.337794,16.177381 Z" id="Fill-14" fill="#4CB7FF"></path>
                    <path d="M162.813045,19.6916667 L162.813045,5.74047619 L164.450608,5.74047619 L164.450608,8.39583333 L164.505392,8.39583333 C165.269389,6.67916667 166.797384,5.47142857 168.599299,5.47142857 L169.3365,5.47142857 L169.3365,7.02797619 L168.599299,7.02797619 C166.797384,7.02797619 164.450608,9.1202381 164.450608,11.8035714 L164.450608,19.6916667 L162.813045,19.6916667" id="Fill-15" fill="#4CB7FF"></path>
                    <path d="M171.711264,12.7696429 C171.711264,15.9357143 173.048706,18.6720238 176.269643,18.6720238 C178.09895,18.6720238 178.999312,18.0547619 180.418334,15.8553571 L181.756372,16.5529762 C180.227186,19.0208333 178.83496,19.960119 176.133279,19.960119 C172.421073,19.960119 170.073701,17.6255952 170.073701,12.7154762 C170.073701,8.39583333 172.311505,5.47142857 175.914739,5.47142857 C179.763309,5.47142857 181.592616,8.45 181.592616,12.7696429 L171.711264,12.7696429 L171.711264,12.7696429 Z M179.954457,11.4815476 C179.626945,8.61071429 178.344286,6.78630952 175.859955,6.75952381 C172.967126,6.7327381 171.738656,9.63035714 171.711264,11.4815476 L179.954457,11.4815476 L179.954457,11.4815476 Z" id="Fill-16" fill="#4CB7FF"></path>
                    <path d="M183.940583,16.3107143 C185.278621,18.1892857 186.479698,18.6720238 188.335206,18.6720238 C190.137121,18.6720238 191.501955,17.5184524 191.501955,16.0160714 C191.501955,11.964881 183.149193,14.2452381 183.149193,9.28154762 C183.149193,6.65238095 185.251229,5.47142857 187.653384,5.47142857 C190.027553,5.47142857 191.529347,6.38452381 192.539276,7.99404762 L191.283415,8.85238095 C190.328269,7.56428571 189.290947,6.75952381 187.598601,6.75952381 C186.015822,6.75952381 184.786756,7.51071429 184.786756,9.20119048 C184.786756,12.6089286 193.139518,10.5964286 193.139518,16.0160714 C193.139518,18.5113095 190.792146,19.960119 188.226829,19.960119 C186.042618,19.960119 184.077543,19.1017857 182.740101,17.1428571 L183.940583,16.3107143" id="Fill-17" fill="#4CB7FF"></path>
                    <path d="M195.897173,5.74047619 L195.897173,1.17857143 L197.534736,1.17857143 L197.534736,5.74047619 L200.646106,5.74047619 L200.646106,7.02797619 L197.534736,7.02797619 L197.534736,17.25 C197.534736,18.1892857 197.971221,18.6720238 198.981151,18.6720238 C199.526608,18.6720238 200.12804,18.5380952 200.646106,18.3767857 L200.646106,19.7184524 C200.100053,19.7994048 199.526608,19.960119 198.981151,19.960119 C196.661171,19.960119 195.897173,19.2089286 195.897173,17.5184524 L195.897173,7.02797619 L193.767746,7.02797619 L193.767746,5.74047619 L195.897173,5.74047619" id="Fill-18" fill="#4CB7FF"></path>
                    <path d="M202.612372,0.320238095 L204.249935,0.320238095 L204.249935,2.68154762 L202.612372,2.68154762 L202.612372,0.320238095 Z M202.612372,5.74047619 L204.249935,5.74047619 L204.249935,19.6916667 L202.612372,19.6916667 L202.612372,5.74047619 Z" id="Fill-19" fill="#4CB7FF"></path>
                    <path d="M218.907611,6.65238095 C218.17041,6.65238095 217.215264,6.7327381 216.641819,7.29642857 C217.269452,8.04702381 217.651749,8.87916667 217.651749,10.2208333 C217.651749,13.6547619 215.168013,15.1035714 212.165616,15.1035714 C211.264658,15.1035714 210.582837,14.9160714 209.872432,14.6744048 C208.97207,14.9964286 208.562382,15.5065476 208.562382,16.0160714 C208.562382,16.8208333 209.108435,17.2232143 212.957005,17.2232143 C217.215264,17.2232143 218.989191,18.5642857 218.989191,20.8452381 C218.989191,22.8845238 217.406412,24.6285714 212.52052,24.6285714 C207.634628,24.6285714 206.323982,22.9916667 206.323982,21.3285714 C206.323982,20.1214286 206.815251,19.1017857 208.807719,18.3767857 L208.807719,18.3232143 C207.770992,18.1089286 206.924819,17.6791667 206.924819,16.4988095 C206.924819,15.3184524 208.016925,14.352381 209.053651,14.1380952 C207.770992,13.2797619 207.006399,11.9380952 207.006399,10.4886905 C207.006399,7.43035714 209.190611,5.47142857 212.629492,5.47142857 C213.993731,5.47142857 215.031053,5.84702381 215.93201,6.4375 C216.751387,5.6327381 217.788113,5.20357143 218.907611,5.20357143 L218.907611,6.65238095 L218.907611,6.65238095 Z M207.962141,21.0333333 C207.962141,22.4017857 209.326379,23.3404762 212.275183,23.3404762 C215.823038,23.3404762 217.351628,22.4017857 217.351628,20.952381 C217.351628,19.7994048 216.423279,18.6720238 212.165616,18.6720238 C208.944678,18.6720238 207.962141,19.8261905 207.962141,21.0333333 L207.962141,21.0333333 Z M212.329372,13.8160714 C214.62196,13.8160714 216.014186,12.7428571 216.014186,10.3279762 C216.014186,7.88630952 214.62196,6.75952381 212.329372,6.75952381 C210.036784,6.75952381 208.644558,8.1547619 208.644558,10.3279762 C208.644558,12.7428571 210.336905,13.8160714 212.329372,13.8160714 L212.329372,13.8160714 Z" id="Fill-20" fill="#4CB7FF"></path>
                    <path d="M221.365146,12.7696429 C221.365146,15.9357143 222.702588,18.6720238 225.92293,18.6720238 C227.752832,18.6720238 228.652598,18.0547619 230.072216,15.8553571 L231.409658,16.5529762 C229.881068,19.0208333 228.488842,19.960119 225.787161,19.960119 C222.074955,19.960119 219.727583,17.6255952 219.727583,12.7154762 C219.727583,8.39583333 221.965387,5.47142857 225.568621,5.47142857 C229.417191,5.47142857 231.246497,8.45 231.246497,12.7696429 L221.365146,12.7696429 L221.365146,12.7696429 Z M229.608339,11.4815476 C229.280827,8.61071429 227.998168,6.78630952 225.513837,6.75952381 C222.621008,6.7327381 221.392538,9.63035714 221.365146,11.4815476 L229.608339,11.4815476 L229.608339,11.4815476 Z" id="Fill-21" fill="#4CB7FF"></path>
                </g>
            </g>
        </g>
    </g>
</svg>